<svg xmlns="http://www.w3.org/2000/svg" width="431.83" height="367.83" viewBox="2817.86 1224.42 431.83 367.83">
<path d="M0 0 C0.712 -0.033 1.424 -0.066 2.158 -0.1 C6.218 -0.141 7.911 0.199 11.023 2.883 C11.381 3.304 11.381 3.304 13.188 5.438 C16 6.75 16 6.75 18.188 7.438 C18.311 8.551 18.435 9.665 18.562 10.812 C19.188 14.438 19.188 14.438 21.188 16.438 C21.446 18.652 21.446 18.652 21.453 21.375 C21.454 21.864 21.454 21.864 21.461 24.336 C21.453 25.359 21.445 26.383 21.438 27.438 C21.441 27.949 21.441 27.949 21.461 30.539 C21.458 31.516 21.456 32.493 21.453 33.5 C21.451 34.398 21.449 35.297 21.446 36.223 C21.188 38.438 21.188 38.438 19.188 40.438 C19.743 44.993 19.743 44.993 21.188 46.438 C21.375 49.875 21.375 49.875 21.188 53.438 C20.858 53.767 20.858 53.767 19.188 55.438 C18.938 57.596 18.784 59.767 18.688 61.938 C18.41 68.215 18.41 68.215 16.188 70.438 C15.497 72.094 14.834 73.763 14.188 75.438 C13.205 77.446 12.204 79.446 11.188 81.438 C10.693 82.428 10.198 83.418 9.688 84.438 C9.193 85.428 8.698 86.418 8.188 87.438 C7.713 88.469 7.239 89.5 6.75 90.562 C5.185 93.443 3.483 95.142 1.188 97.438 C0.906 98.206 0.625 98.974 0.336 99.766 C-1.019 102.917 -2.693 104.718 -5.125 107.125 C-5.505 107.508 -5.505 107.508 -7.426 109.449 C-9.845 111.465 -11.884 112.363 -14.812 113.438 C-15.472 114.098 -16.133 114.757 -16.812 115.438 C-19.049 117.674 -20.909 118.276 -23.812 119.438 C-24.431 120.118 -25.05 120.799 -25.688 121.5 C-28.56 124.119 -31.023 124.016 -34.812 124.438 C-35.472 125.098 -36.133 125.757 -36.812 126.438 C-38.471 127.125 -40.137 127.793 -41.812 128.438 C-42.142 128.767 -42.472 129.098 -42.812 129.438 C-45.36 129.721 -47.908 129.886 -50.465 130.059 C-52.812 130.438 -52.812 130.438 -54.812 132.438 C-57.027 132.696 -57.027 132.696 -59.75 132.703 C-60.727 132.706 -61.704 132.708 -62.711 132.711 C-63.734 132.703 -64.758 132.695 -65.812 132.688 C-66.836 132.695 -67.86 132.703 -68.914 132.711 C-69.403 132.71 -69.403 132.71 -71.875 132.703 C-72.773 132.701 -73.672 132.699 -74.598 132.696 C-76.812 132.438 -76.812 132.438 -78.812 130.438 C-81.438 129.812 -81.438 129.812 -83.812 129.438 C-84.122 128.468 -84.431 127.499 -84.75 126.5 C-85.812 123.438 -85.812 123.438 -86.812 122.438 C-87.628 118.927 -87.64 115.948 -86.812 112.438 C-84.015 108.417 -80.877 105.175 -76.812 102.438 C-74.491 102.03 -72.156 101.686 -69.812 101.438 C-69.483 101.108 -69.483 101.108 -67.812 99.438 C-64.468 99.05 -61.144 98.93 -57.781 98.781 C-54.812 98.438 -54.812 98.438 -52.812 96.438 C-51.156 95.747 -49.487 95.084 -47.812 94.438 C-43.076 92.365 -39.642 89.731 -36.062 86.062 C-35.582 85.593 -35.101 85.124 -34.605 84.641 C-31.756 81.768 -30.085 79.268 -28.812 75.438 C-28.483 75.108 -28.153 74.777 -27.812 74.438 C-27.668 73.303 -27.524 72.169 -27.375 71 C-26.812 67.438 -26.812 67.438 -24.812 65.438 C-24.3 61.354 -24.396 57.237 -24.375 53.125 C-24.342 51.984 -24.309 50.842 -24.275 49.666 C-24.221 41.191 -24.221 41.191 -27.262 37.316 C-28.103 36.696 -28.945 36.076 -29.812 35.438 C-31.062 32.688 -31.062 32.688 -31.812 30.438 C-32.142 30.108 -32.472 29.777 -32.812 29.438 C-32.957 28.303 -33.101 27.169 -33.25 26 C-33.812 22.438 -33.812 22.438 -35.812 20.438 C-35.438 17.812 -35.438 17.812 -34.812 15.438 C-34.153 15.438 -33.492 15.438 -32.812 15.438 C-32.812 13.457 -32.812 11.477 -32.812 9.438 C-32.379 9.303 -32.379 9.303 -30.188 8.625 C-22.184 5.809 -22.184 5.809 -19.812 3.438 C-17.265 3.154 -14.717 2.989 -12.16 2.816 C-7.821 2.116 -5.006 0.04 0 0 Z " fill="#22D3EE" transform="translate(2990.8125,1232.5625)"/>
<path d="M0 0 C0.842 -0.003 1.684 -0.005 2.551 -0.008 C2.991 -0.004 2.991 -0.004 5.219 0.016 C6.099 0.008 6.98 0 7.887 -0.008 C8.728 -0.005 9.57 -0.003 10.438 0 C10.824 0.001 10.824 0.001 12.779 0.007 C14.719 0.266 14.719 0.266 16.719 2.266 C17.455 2.523 18.191 2.781 18.949 3.047 C25.438 5.902 31.859 12.41 34.953 18.824 C35.575 23.33 33.928 26.189 31.34 29.742 C27.173 34.789 22.955 39.191 16.293 40.312 C12.402 40.67 8.61 40.57 4.719 40.266 C4.657 40.822 4.657 40.822 4.344 43.641 C3.719 47.266 3.719 47.266 1.719 49.266 C1.478 51.252 1.478 51.252 1.492 53.715 C1.492 54.176 1.492 54.176 1.492 56.506 C1.502 57.502 1.513 58.497 1.523 59.523 C1.525 60.033 1.525 60.033 1.532 62.609 C1.543 65.87 1.568 69.13 1.594 72.391 C1.604 74.598 1.613 76.805 1.621 79.012 C1.643 84.43 1.677 89.848 1.719 95.266 C2.049 95.431 2.049 95.431 3.719 96.266 C3.719 97.256 3.719 98.246 3.719 99.266 C3.389 99.431 3.389 99.431 1.719 100.266 C1.719 114.456 1.719 128.646 1.719 143.266 C2.379 143.596 3.039 143.926 3.719 144.266 C3.719 145.256 3.719 146.246 3.719 147.266 C3.059 147.596 2.399 147.926 1.719 148.266 C1.719 150.576 1.719 152.886 1.719 155.266 C2.379 155.596 3.039 155.926 3.719 156.266 C3.719 157.256 3.719 158.246 3.719 159.266 C3.059 159.596 2.399 159.926 1.719 160.266 C1.409 161.049 1.1 161.833 0.781 162.641 C-0.747 166.415 -2.169 167.789 -5.906 169.391 C-6.298 169.535 -6.298 169.535 -8.281 170.266 C-8.611 170.596 -8.941 170.926 -9.281 171.266 C-12.611 171.551 -15.94 171.715 -19.277 171.887 C-22.281 172.266 -22.281 172.266 -24.281 174.266 C-25.948 174.932 -27.615 175.599 -29.281 176.266 C-31.281 178.266 -31.281 178.266 -32.219 180.703 C-33.298 183.307 -33.938 184.704 -36.281 186.266 C-37.958 185.989 -39.628 185.659 -41.281 185.266 C-41.331 179.178 -41.367 173.091 -41.391 167.004 C-41.401 164.932 -41.415 162.86 -41.432 160.788 C-41.456 157.814 -41.468 154.841 -41.477 151.867 C-41.487 150.937 -41.497 150.007 -41.508 149.048 C-41.508 148.188 -41.508 147.327 -41.508 146.44 C-41.513 145.68 -41.517 144.921 -41.522 144.139 C-41.281 142.266 -41.281 142.266 -39.281 140.266 C-39.837 135.71 -39.837 135.71 -41.281 134.266 C-41.387 131.537 -41.428 128.835 -41.427 126.106 C-41.43 125.25 -41.433 124.395 -41.437 123.514 C-41.446 120.672 -41.448 117.83 -41.449 114.988 C-41.452 113.022 -41.456 111.055 -41.459 109.088 C-41.465 104.959 -41.467 100.831 -41.467 96.702 C-41.466 91.401 -41.48 86.1 -41.497 80.799 C-41.508 76.736 -41.51 72.672 -41.51 68.608 C-41.511 66.654 -41.516 64.699 -41.523 62.744 C-41.533 60.014 -41.53 57.285 -41.524 54.555 C-41.53 53.741 -41.535 52.927 -41.541 52.088 C-41.51 46.494 -41.51 46.494 -39.281 44.266 C-38.938 41.953 -38.938 41.953 -38.781 39.266 C-38.503 34.488 -38.503 34.488 -36.281 32.266 C-35.591 30.609 -34.928 28.94 -34.281 27.266 C-33.298 25.257 -32.297 23.257 -31.281 21.266 C-30.91 20.338 -30.539 19.409 -30.156 18.453 C-26.42 12.102 -21.297 6.725 -14.281 4.266 C-13.951 3.936 -13.621 3.606 -13.281 3.266 C-12.147 3.121 -11.012 2.977 -9.844 2.828 C-5.635 2.164 -4.328 0.013 0 0 Z " fill="#22D3EE" transform="translate(3068.28125,1232.734375)"/>
<path d="M0 0 C0.371 -0.006 0.371 -0.006 2.248 -0.037 C4.188 -0.042 6.127 0.066 8.062 0.188 C8.392 0.517 8.392 0.517 10.062 2.188 C11.719 2.878 13.388 3.541 15.062 4.188 C20.815 6.554 24.527 10.201 28.812 14.562 C29.484 15.223 30.156 15.882 30.848 16.562 C34.241 19.976 36.453 22.594 38.062 27.188 C38.726 27.733 39.39 28.278 40.074 28.84 C42.805 32.064 42.665 34.976 42.672 39.016 C42.688 39.765 42.705 40.514 42.722 41.285 C42.77 43.669 42.792 46.053 42.812 48.438 C42.841 50.057 42.871 51.677 42.902 53.297 C42.976 57.26 43.026 61.223 43.062 65.188 C43.827 65.488 44.591 65.788 45.379 66.098 C48.364 67.31 51.193 68.723 54.062 70.188 C55.094 70.662 56.125 71.136 57.188 71.625 C60.068 73.19 61.767 74.892 64.062 77.188 C65.721 77.875 67.387 78.543 69.062 79.188 C71.942 81.427 72.808 83.815 74.062 87.188 C76.84 92.965 76.84 92.965 78.062 94.188 C78.281 98.587 78.248 102.993 78.248 107.398 C78.25 109.612 78.268 111.826 78.287 114.041 C78.29 115.443 78.292 116.844 78.293 118.246 C78.297 119.528 78.301 120.81 78.305 122.131 C78.062 125.188 78.062 125.188 76.062 127.188 C75.372 128.844 74.709 130.513 74.062 132.188 C71.87 137.271 69.081 140.63 65.188 144.438 C64.671 144.966 64.154 145.495 63.621 146.039 C60.624 149.014 58.086 150.91 54.062 152.188 C52.054 153.17 50.054 154.171 48.062 155.188 C46.969 155.724 45.876 156.26 44.75 156.812 C42.062 158.188 42.062 158.188 41.062 159.188 C40.495 159.26 40.495 159.26 37.625 159.625 C34.062 160.188 34.062 160.188 32.062 162.188 C28.718 162.575 25.394 162.695 22.031 162.844 C19.062 163.188 19.062 163.188 17.062 165.188 C13.641 165.512 10.261 165.652 6.828 165.754 C1.262 165.987 1.262 165.987 -0.938 168.188 C-4.359 168.512 -7.739 168.652 -11.172 168.754 C-16.738 168.987 -16.738 168.987 -18.938 171.188 C-21.501 171.569 -24.038 171.693 -26.625 171.844 C-28.938 172.188 -28.938 172.188 -30.938 174.188 C-33.271 174.521 -35.604 174.854 -37.938 175.188 C-38.597 175.848 -39.258 176.507 -39.938 177.188 C-42.271 177.521 -44.604 177.854 -46.938 178.188 C-47.597 178.848 -48.258 179.507 -48.938 180.188 C-50.594 180.878 -52.263 181.541 -53.938 182.188 C-57.115 183.614 -59.529 184.779 -62 187.25 C-63.938 189.188 -63.938 189.188 -66.152 189.895 C-70.761 192.034 -73.741 195.947 -77.121 199.664 C-81.334 204.105 -81.334 204.105 -84.844 204.586 C-85.535 204.454 -86.226 204.323 -86.938 204.188 C-86.793 204.868 -86.649 205.549 -86.5 206.25 C-87.107 210.328 -89.089 212.102 -92.055 214.852 C-93.938 216.188 -93.938 216.188 -96.75 216.438 C-99.615 214.8 -100.008 213.287 -100.938 210.188 C-101.267 209.858 -101.597 209.527 -101.938 209.188 C-102.187 206.049 -102.123 202.897 -102.125 199.75 C-102.137 198.865 -102.149 197.98 -102.162 197.068 C-102.164 196.222 -102.166 195.376 -102.168 194.504 C-102.172 193.725 -102.176 192.946 -102.18 192.143 C-101.938 190.188 -101.938 190.188 -99.938 188.188 C-99.247 186.531 -98.584 184.862 -97.938 183.188 C-96.064 179.016 -94.14 176.39 -90.938 173.188 C-90.687 172.45 -90.437 171.713 -90.18 170.953 C-88.5 167.214 -86.029 164.84 -83.125 162 C-82.604 161.467 -82.082 160.934 -81.545 160.385 C-78.508 157.37 -76.052 155.588 -71.938 154.188 C-71.608 153.858 -71.608 153.858 -69.938 152.188 C-67.723 149.973 -65.861 149.215 -62.938 148.188 C-62.608 147.858 -62.278 147.527 -61.938 147.188 C-59.39 146.904 -56.842 146.739 -54.285 146.566 C-51.938 146.188 -51.938 146.188 -49.938 144.188 C-47.374 143.806 -44.837 143.682 -42.25 143.531 C-39.938 143.188 -39.938 143.188 -37.938 141.188 C-35.374 140.806 -32.837 140.682 -30.25 140.531 C-27.938 140.188 -27.938 140.188 -25.938 138.188 C-23.604 137.854 -21.271 137.521 -18.938 137.188 C-18.278 136.527 -17.617 135.868 -16.938 135.188 C-13.593 134.8 -10.269 134.68 -6.906 134.531 C-3.938 134.188 -3.938 134.188 -1.938 132.188 C0.828 131.9 0.828 131.9 4.312 131.844 C5.56 131.814 6.808 131.784 8.094 131.754 C10.74 131.71 13.385 131.665 16.031 131.621 C17.279 131.591 18.527 131.562 19.812 131.531 C20.962 131.513 22.112 131.494 23.297 131.475 C26.062 131.188 26.062 131.188 28.062 129.188 C30.396 128.854 32.729 128.521 35.062 128.188 C35.722 127.527 36.383 126.868 37.062 126.188 C37.444 126.053 37.444 126.053 39.375 125.375 C43.103 123.728 44.721 122.599 47.062 119.188 C48.542 108.166 48.542 108.166 45.695 104.359 C43.617 102.868 41.454 102.069 39.062 101.188 C38.733 100.858 38.403 100.527 38.062 100.188 C21.673 98.624 21.673 98.624 16.199 101.902 C14.188 104.062 14.188 104.062 12.633 106.242 C10.699 108.638 8.938 109.21 6.062 110.188 C5.733 110.517 5.403 110.848 5.062 111.188 C4.485 111.26 4.485 111.26 1.562 111.625 C0.407 111.811 -0.747 111.996 -1.938 112.188 C-2.267 112.848 -2.597 113.507 -2.938 114.188 C-3.927 114.188 -4.918 114.188 -5.938 114.188 C-6.267 113.527 -6.597 112.868 -6.938 112.188 C-9.27 111.848 -11.603 111.515 -13.938 111.188 C-14.597 110.527 -15.258 109.868 -15.938 109.188 C-16.321 109.037 -16.321 109.037 -18.262 108.277 C-23.516 106.137 -27.098 103.117 -29.938 98.188 C-31.104 92.175 -31.155 85.205 -29.938 79.188 C-29.278 78.527 -28.617 77.868 -27.938 77.188 C-27.628 76.383 -27.319 75.579 -27 74.75 C-25.528 71.199 -24.155 69.714 -20.625 68.188 C-20.182 68.023 -20.182 68.023 -17.938 67.188 C-12.16 64.41 -12.16 64.41 -10.938 63.188 C-8.245 62.951 -5.573 62.766 -2.875 62.625 C-2.496 62.603 -2.496 62.603 -0.576 62.494 C1.303 62.388 3.183 62.287 5.062 62.188 C5.188 58.813 5.188 58.813 5.062 55.188 C4.403 54.527 3.742 53.868 3.062 53.188 C2.915 52.798 2.915 52.798 2.168 50.828 C0.276 46.309 -3.084 43.141 -6.938 40.188 C-10.625 39.5 -10.625 39.5 -13.938 39.188 C-15.644 37.562 -17.314 35.896 -18.938 34.188 C-21.75 33.375 -21.75 33.375 -23.938 33.188 C-24.247 32.218 -24.556 31.249 -24.875 30.25 C-25.938 27.188 -25.938 27.188 -26.938 26.188 C-28.029 22.592 -27.979 19.797 -26.938 16.188 C-22.563 9.942 -16.285 3.552 -8.938 1.188 C-6.895 -0.855 -2.801 0.002 0 0 Z " fill="#22D3EE" transform="translate(3125.9375,1259.8125)"/>
<path d="M0 0 C2.688 2.688 1.412 11.448 1.46 15.217 C1.486 16.812 1.527 18.407 1.583 20 C2.099 34.933 2.099 34.933 -2.055 39.508 C-6.9 43.163 -11.925 43.531 -17.82 43.047 C-24.228 41.865 -28.625 37.868 -32.617 32.906 C-36.029 27.872 -37.118 22.984 -36.234 16.969 C-34.493 10.111 -30.219 4.828 -24.313 1.022 C-17.089 -2.17 -7.644 -1.269 0 0 Z " fill="#22D3EE" transform="translate(3239,1260)"/>
<path d="M0 0 C5.627 0.283 8.394 3.719 12.113 7.574 C14.693 10.891 14.916 12.875 15 17 C15.33 17.33 15.33 17.33 17 19 C16.444 23.556 16.444 23.556 15 25 C14.717 27.548 14.552 30.095 14.379 32.652 C14 35 14 35 12 37 C11.375 39.625 11.375 39.625 11 42 C10.031 42.309 9.061 42.619 8.062 42.938 C5 44 5 44 4 45 C1.452 45.283 -1.095 45.448 -3.652 45.621 C-6 46 -6 46 -8 48 C-10.333 48.333 -12.667 48.667 -15 49 C-15.66 49.66 -16.32 50.32 -17 51 C-17.374 51.131 -17.374 51.131 -19.27 51.793 C-22.747 53.33 -25.072 55.633 -27.688 58.312 C-28.173 58.786 -28.658 59.26 -29.158 59.748 C-32.025 62.638 -33.724 65.144 -35 69 C-35.33 69.33 -35.66 69.66 -36 70 C-36.103 71.093 -36.206 72.186 -36.312 73.312 C-37.067 77.36 -37.654 78.676 -41 81 C-43.75 81.25 -43.75 81.25 -46 81 C-45.918 81.743 -45.835 82.485 -45.75 83.25 C-46 86 -46 86 -47.562 88.312 C-50.928 90.642 -52.99 90.573 -57 90 C-60.422 87.503 -61.602 84.914 -63 81 C-65.778 75.222 -65.778 75.222 -67 74 C-67.252 70.361 -67.185 66.709 -67.188 63.062 C-67.2 62.034 -67.212 61.006 -67.225 59.947 C-67.227 58.966 -67.228 57.984 -67.23 56.973 C-67.235 56.068 -67.239 55.163 -67.243 54.231 C-67 52 -67 52 -65 50 C-64.312 48.342 -63.644 46.675 -63 45 C-62.835 44.835 -62.835 44.835 -62 44 C-61.918 42.928 -61.835 41.855 -61.75 40.75 C-60.85 36.248 -59.3 35.059 -56 32 C-55.691 31.196 -55.381 30.391 -55.062 29.562 C-53.537 25.882 -51.082 23.484 -48 21 C-47.598 20.845 -47.598 20.845 -45.562 20.062 C-42.754 18.898 -41.576 17.684 -39.5 15.5 C-36.795 12.672 -34.793 11.167 -31 10 C-28.992 9.017 -26.992 8.016 -25 7 C-23.907 6.464 -22.814 5.928 -21.688 5.375 C-19 4 -19 4 -18 3 C-14.604 2.763 -11.216 2.604 -7.814 2.482 C-2.213 2.213 -2.213 2.213 0 0 Z " fill="#22D3EE" transform="translate(2938,1263)"/>
<path d="M0 0 C1 1 1 1 1.12 3.474 C1.119 4.024 1.119 4.024 1.114 6.805 C1.113 8.046 1.113 9.287 1.113 10.566 C1.108 11.931 1.103 13.295 1.098 14.66 C1.096 16.049 1.094 17.437 1.093 18.826 C1.09 22.487 1.08 26.148 1.069 29.81 C1.058 33.543 1.054 37.276 1.049 41.01 C1.038 48.34 1.021 55.67 1 63 C0.01 63 -0.98 63 -2 63 C-2.155 62.515 -2.155 62.515 -2.938 60.062 C-4 57 -4 57 -5 56 C-5.283 53.452 -5.448 50.905 -5.621 48.348 C-6 46 -6 46 -8 44 C-8.333 41.667 -8.667 39.333 -9 37 C-9.66 36.34 -10.32 35.68 -11 35 C-11.381 32.436 -11.506 29.899 -11.656 27.312 C-12 25 -12 25 -14 23 C-14.688 21.342 -15.356 19.675 -16 18 C-16.33 17.67 -16.66 17.34 -17 17 C-17.728 12.683 -17.925 8.695 -15.789 4.781 C-11.245 -0.424 -6.68 -1.126 0 0 Z " fill="#22D3EE" transform="translate(3239,1317)"/>
<path d="M0 0 C0.99 0 1.98 0 3 0 C5.518 2.72 6.694 5.571 8 9 C10.778 14.778 10.778 14.778 12 16 C12.144 17.134 12.289 18.269 12.438 19.438 C13 23 13 23 15 25 C15.333 27.333 15.667 29.667 16 32 C16.66 32.66 17.32 33.32 18 34 C18.132 34.374 18.132 34.374 18.801 36.266 C20.32 39.729 22.557 42.109 25.188 44.75 C25.644 45.244 26.101 45.737 26.572 46.246 C30.204 49.923 32.962 50.541 38 51 C38.66 51.66 39.32 52.32 40 53 C42.49 53.259 42.49 53.259 45.594 53.266 C46.706 53.268 47.819 53.271 48.965 53.273 C50.131 53.266 51.298 53.258 52.5 53.25 C53.667 53.258 54.833 53.265 56.035 53.273 C57.148 53.271 58.26 53.268 59.406 53.266 C59.918 53.264 59.918 53.264 62.51 53.259 C65 53 65 53 67 51 C70.422 50.676 73.801 50.536 77.234 50.434 C82.8 50.2 82.8 50.2 85 48 C87.333 47.667 89.667 47.333 92 47 C92.33 46.67 92.33 46.67 94 45 C95.657 44.31 97.326 43.647 99 43 C101.008 42.017 103.008 41.016 105 40 C108.029 38.485 111.048 36.978 114.125 35.562 C117 34 117 34 119.062 31.938 C121.26 29.74 123.144 29.142 126 28 C126.66 27.299 127.32 26.598 128 25.875 C130 24 130 24 132.75 23.75 C133.492 23.832 134.235 23.915 135 24 C134.918 23.257 134.835 22.515 134.75 21.75 C135 19 135 19 136.688 16.812 C139.076 14.941 141.202 14.119 144 13 C144.309 12.649 144.309 12.649 145.875 10.875 C148 9 148 9 151.5 8.5 C155 9 155 9 157.184 10.348 C160.093 14.596 159.618 18.912 159.562 23.938 C159.586 24.927 159.61 25.916 159.635 26.936 C159.62 34.259 159.62 34.259 156.59 37.879 C156.163 38.229 156.163 38.229 154 40 C153.698 40.779 153.396 41.558 153.085 42.36 C151.839 45.393 150.349 47.039 148.043 49.355 C147.26 50.142 146.477 50.929 145.67 51.74 C144.851 52.548 144.032 53.355 143.188 54.188 C142.38 55.007 141.572 55.826 140.74 56.67 C139.953 57.453 139.166 58.236 138.355 59.043 C137.64 59.755 136.925 60.467 136.188 61.2 C133.871 63.106 131.792 63.959 129 65 C128.34 65.66 127.68 66.32 127 67 C124.786 69.214 122.923 69.973 120 71 C119.67 71.33 119.34 71.66 119 72 C118.433 72.072 118.433 72.072 115.562 72.438 C112 73 112 73 110 75 C107.667 75.333 105.333 75.667 103 76 C102.34 76.66 101.68 77.32 101 78 C99.343 78.69 97.674 79.353 96 80 C90.222 82.778 90.222 82.778 89 84 C87.866 84.144 86.731 84.289 85.562 84.438 C82 85 82 85 80 87 C77.436 87.381 74.899 87.506 72.312 87.656 C70 88 70 88 68 90 C65.436 90.381 62.899 90.506 60.312 90.656 C58 91 58 91 56 93 C53.234 93.259 53.234 93.259 49.75 93.266 C49.126 93.267 49.126 93.267 45.969 93.273 C45.314 93.27 45.314 93.27 42 93.25 C40.69 93.258 39.381 93.265 38.031 93.273 C36.783 93.271 35.536 93.268 34.25 93.266 C33.1 93.263 31.95 93.261 30.766 93.259 C28 93 28 93 26 91 C24.845 90.835 23.69 90.67 22.5 90.5 C19 90 19 90 17 88 C15.907 87.897 14.814 87.794 13.688 87.688 C9.205 86.852 8.037 85.277 5 82 C4.598 81.845 4.598 81.845 2.562 81.062 C-1.926 79.201 -5.215 75.831 -7.125 71.375 C-7.414 70.591 -7.702 69.807 -8 69 C-8.66 68.34 -9.32 67.68 -10 67 C-12.214 64.786 -12.973 62.923 -14 60 C-14.33 59.67 -14.66 59.34 -15 59 C-15.283 56.452 -15.448 53.905 -15.621 51.348 C-16 49 -16 49 -18 47 C-18.266 44.031 -18.266 44.031 -18.25 40.5 C-18.255 39.335 -18.26 38.169 -18.266 36.969 C-18 34 -18 34 -16 32 C-15.835 30.845 -15.67 29.69 -15.5 28.5 C-15 25 -15 25 -13 23 C-12.948 22.453 -12.948 22.453 -12.688 19.688 C-11.852 15.205 -10.277 14.037 -7 11 C-6.319 9.339 -5.653 7.672 -5 6 C-3.476 3.759 -1.889 1.981 0 0 Z " fill="#22D3EE" transform="translate(2856,1329)"/>
<path d="M0 0 C2.743 1.003 3.736 1.546 5.449 3.896 C5.846 7.017 5.846 7.017 5.877 10.947 C5.887 11.669 5.897 12.392 5.906 13.136 C5.935 15.563 5.942 17.99 5.948 20.417 C5.964 22.155 5.981 23.893 5.998 25.631 C6.042 30.359 6.066 35.086 6.083 39.814 C6.094 42.769 6.108 45.724 6.123 48.679 C6.17 57.929 6.203 67.179 6.219 76.429 C6.238 87.099 6.299 97.768 6.398 108.437 C6.471 116.688 6.506 124.938 6.512 133.189 C6.517 138.115 6.537 143.04 6.598 147.965 C6.655 152.604 6.663 157.241 6.635 161.88 C6.633 163.577 6.648 165.274 6.682 166.971 C6.919 179.688 6.919 179.688 3.283 185.151 C-3.506 192.196 -3.506 192.196 -8.5 193.063 C-9.734 193.023 -10.967 192.983 -12.238 192.943 C-12.907 192.933 -13.577 192.924 -14.266 192.914 C-16.366 192.872 -18.454 192.759 -20.551 192.646 C-21.982 192.613 -23.413 192.584 -24.844 192.56 C-35.154 192.292 -35.154 192.292 -37.551 189.896 C-39.709 189.646 -41.88 189.492 -44.051 189.396 C-50.329 189.118 -50.329 189.118 -52.551 186.896 C-54.863 186.552 -54.863 186.552 -57.551 186.396 C-62.329 186.118 -62.329 186.118 -64.551 183.896 C-65.706 183.731 -66.861 183.566 -68.051 183.396 C-71.551 182.896 -71.551 182.896 -73.551 180.896 C-75.208 180.205 -76.876 179.543 -78.551 178.896 C-80.559 177.913 -82.559 176.912 -84.551 175.896 C-85.479 175.525 -86.407 175.153 -87.363 174.771 C-92.209 171.921 -96.205 168.43 -99.551 163.896 C-100.292 160.839 -100.068 159.055 -99.551 155.896 C-98.561 155.896 -97.571 155.896 -96.551 155.896 C-96.221 156.556 -95.891 157.216 -95.551 157.896 C-88.609 157.946 -81.667 157.981 -74.726 158.006 C-72.363 158.016 -70 158.029 -67.637 158.047 C-64.246 158.071 -60.856 158.082 -57.465 158.091 C-56.403 158.101 -55.342 158.112 -54.248 158.122 C-53.267 158.122 -52.286 158.123 -51.276 158.123 C-50.41 158.127 -49.544 158.132 -48.652 158.136 C-46.551 157.896 -46.551 157.896 -44.551 155.896 C-41.987 155.515 -39.45 155.39 -36.863 155.24 C-34.551 154.896 -34.551 154.896 -32.551 152.896 C-30.884 152.229 -29.217 151.562 -27.551 150.896 C-25.003 148.348 -25.315 146.726 -25.302 143.253 C-25.309 142.465 -25.316 141.677 -25.324 140.866 C-25.323 140.037 -25.323 139.207 -25.323 138.353 C-25.324 135.604 -25.34 132.855 -25.355 130.107 C-25.359 128.204 -25.362 126.301 -25.364 124.398 C-25.372 119.384 -25.391 114.37 -25.413 109.356 C-25.434 104.241 -25.443 99.127 -25.453 94.013 C-25.475 83.974 -25.509 73.935 -25.551 63.896 C-29.696 64.637 -32.819 65.916 -36.551 67.896 C-48.551 73.896 -48.551 73.896 -51.863 75.521 C-54.551 76.896 -54.551 76.896 -55.551 77.896 C-56.685 78.04 -57.82 78.185 -58.988 78.333 C-62.551 78.896 -62.551 78.896 -64.551 80.896 C-66.209 81.583 -67.875 82.251 -69.551 82.896 C-69.881 83.226 -70.211 83.556 -70.551 83.896 C-71.685 84.04 -72.82 84.185 -73.988 84.333 C-77.551 84.896 -77.551 84.896 -79.551 86.896 C-81.209 87.583 -82.875 88.251 -84.551 88.896 C-84.881 89.226 -85.211 89.556 -85.551 89.896 C-88.098 90.179 -90.646 90.344 -93.203 90.517 C-95.551 90.896 -95.551 90.896 -97.551 92.896 C-100.54 93.096 -103.435 93.175 -106.426 93.161 C-107.306 93.163 -108.186 93.165 -109.093 93.167 C-110.956 93.169 -112.819 93.165 -114.682 93.156 C-117.539 93.146 -120.396 93.156 -123.254 93.169 C-125.061 93.168 -126.868 93.165 -128.676 93.161 C-129.534 93.165 -130.392 93.169 -131.277 93.174 C-137.321 93.126 -137.321 93.126 -139.551 90.896 C-140.706 90.731 -141.861 90.566 -143.051 90.396 C-146.551 89.896 -146.551 89.896 -148.551 87.896 C-149.706 87.731 -150.861 87.566 -152.051 87.396 C-155.551 86.896 -155.551 86.896 -157.551 84.896 C-157.905 84.786 -157.905 84.786 -159.695 84.228 C-164.017 82.212 -166.923 78.957 -170.238 75.583 C-170.914 74.919 -171.591 74.254 -172.287 73.57 C-175.618 70.219 -178.213 67.538 -179.551 62.896 C-182.329 57.118 -182.329 57.118 -183.551 55.896 C-183.649 54.55 -183.679 53.2 -183.68 51.851 C-183.683 50.993 -183.686 50.136 -183.69 49.252 C-183.688 48.32 -183.686 47.388 -183.684 46.427 C-183.685 45.476 -183.686 44.526 -183.686 43.546 C-183.687 41.532 -183.685 39.518 -183.681 37.504 C-183.676 34.409 -183.681 31.315 -183.688 28.22 C-183.687 26.268 -183.686 24.316 -183.684 22.365 C-183.686 21.432 -183.688 20.5 -183.69 19.539 C-183.687 18.682 -183.683 17.824 -183.68 16.941 C-183.679 16.182 -183.679 15.423 -183.678 14.642 C-183.551 12.896 -183.551 12.896 -182.551 11.896 C-180.218 11.855 -177.884 11.853 -175.551 11.896 C-175.138 12.803 -174.726 13.711 -174.301 14.646 C-172.551 17.896 -172.551 17.896 -170.488 19.958 C-168.551 21.896 -168.551 21.896 -167.762 24.161 C-166.221 27.64 -163.919 29.967 -161.238 32.583 C-160.765 33.069 -160.291 33.554 -159.803 34.054 C-156.898 36.935 -154.39 38.554 -150.551 39.896 C-149.217 41.229 -147.884 42.562 -146.551 43.896 C-143.863 45.083 -143.863 45.083 -141.551 45.896 C-141.221 46.226 -140.891 46.556 -140.551 46.896 C-139.416 47.04 -138.282 47.185 -137.113 47.333 C-133.551 47.896 -133.551 47.896 -131.551 49.896 C-129.336 50.155 -129.336 50.155 -126.613 50.161 C-125.636 50.164 -124.659 50.167 -123.652 50.169 C-122.629 50.161 -121.605 50.154 -120.551 50.146 C-119.527 50.153 -118.504 50.161 -117.449 50.169 C-116.961 50.168 -116.961 50.168 -114.488 50.161 C-113.59 50.159 -112.691 50.157 -111.766 50.155 C-109.551 49.896 -109.551 49.896 -107.551 47.896 C-104.129 47.571 -100.749 47.431 -97.316 47.329 C-91.751 47.096 -91.751 47.096 -89.551 44.896 C-86.207 44.509 -82.882 44.388 -79.52 44.24 C-76.551 43.896 -76.551 43.896 -74.551 41.896 C-72.217 41.562 -69.884 41.229 -67.551 40.896 C-67.221 40.566 -67.221 40.566 -65.551 38.896 C-63.893 38.208 -62.226 37.54 -60.551 36.896 C-60.221 36.566 -59.891 36.236 -59.551 35.896 C-58.416 35.751 -57.282 35.607 -56.113 35.458 C-52.551 34.896 -52.551 34.896 -50.551 32.896 C-48.894 32.205 -47.225 31.543 -45.551 30.896 C-43.542 29.913 -41.543 28.912 -39.551 27.896 C-36.522 26.381 -33.503 24.874 -30.426 23.458 C-27.551 21.896 -27.551 21.896 -25.488 19.833 C-23.551 17.896 -23.551 17.896 -21.168 17.008 C-18.267 15.775 -16.859 14.473 -14.738 12.165 C-14.055 11.445 -13.372 10.725 -12.668 9.984 C-11.251 8.46 -9.839 6.932 -8.434 5.398 C-8.092 5.04 -8.092 5.04 -6.363 3.228 C-5.751 2.565 -5.139 1.902 -4.508 1.219 C-2.551 -0.104 -2.551 -0.104 0 0 Z " fill="#22D3EE" transform="translate(3009.55078125,1389.104248046875)"/>
<path d="M0 0 C0.99 0 1.98 0 3 0 C3.049 5.802 3.086 11.605 3.11 17.407 C3.12 19.382 3.134 21.357 3.151 23.332 C3.175 26.167 3.186 29.001 3.195 31.836 C3.206 32.722 3.216 33.609 3.227 34.522 C3.227 36.683 3.123 38.843 3 41 C2.67 41.33 2.67 41.33 1 43 C0.31 44.657 -0.353 46.326 -1 48 C-1.983 50.008 -2.984 52.008 -4 54 C-4.186 54.464 -4.186 54.464 -5.125 56.812 C-8.9 63.23 -13.985 68.419 -21 71 C-21.66 71.66 -22.32 72.32 -23 73 C-25.263 75.263 -27.009 75.932 -30 77 C-35.778 79.778 -35.778 79.778 -37 81 C-37.567 81.072 -37.567 81.072 -40.438 81.438 C-44 82 -44 82 -46 84 C-47.971 84.319 -47.971 84.319 -50.352 84.414 C-51.202 84.453 -52.053 84.491 -52.93 84.531 C-53.819 84.562 -54.709 84.593 -55.625 84.625 C-56.522 84.664 -57.419 84.702 -58.344 84.742 C-60.562 84.837 -62.781 84.922 -65 85 C-65.33 85.66 -65.66 86.32 -66 87 C-68 86 -70 85 -72 84 C-72.165 84.495 -72.165 84.495 -73 87 C-73.838 87.02 -74.675 87.04 -75.539 87.06 C-78.644 87.138 -81.748 87.225 -84.853 87.317 C-86.859 87.375 -88.865 87.422 -90.871 87.469 C-92.128 87.507 -93.385 87.546 -94.68 87.586 C-95.842 87.617 -97.005 87.649 -98.203 87.681 C-101 88 -101 88 -103 90 C-106.422 90.324 -109.801 90.464 -113.234 90.566 C-118.8 90.8 -118.8 90.8 -121 93 C-122.657 93.69 -124.326 94.353 -126 95 C-128.008 95.983 -130.008 96.984 -132 98 C-132.949 98.392 -133.898 98.784 -134.875 99.188 C-140.986 102.732 -145.601 107.322 -148 114 C-148.33 114.33 -148.66 114.66 -149 115 C-149.25 118.138 -149.185 121.29 -149.188 124.438 C-149.194 124.88 -149.194 124.88 -149.225 127.119 C-149.227 127.965 -149.228 128.812 -149.23 129.684 C-149.235 130.463 -149.239 131.242 -149.243 132.045 C-149 134 -149 134 -147 136 C-146.852 136.389 -146.852 136.389 -146.105 138.359 C-144.213 142.88 -140.852 146.043 -137 149 C-133.125 149.875 -133.125 149.875 -130 150 C-129.67 150.33 -129.67 150.33 -128 152 C-125.688 152.266 -125.688 152.266 -123 152.25 C-122.557 152.253 -122.557 152.253 -120.312 152.266 C-118 152 -118 152 -116 150 C-114.342 149.312 -112.675 148.644 -111 148 C-110.67 147.67 -110.34 147.34 -110 147 C-106.671 146.715 -103.341 146.551 -100.004 146.379 C-97 146 -97 146 -95 144 C-92.306 144.207 -90.486 144.698 -88.188 146.125 C-86.321 149.071 -86.692 151.609 -87 155 C-87.66 155.66 -88.32 156.32 -89 157 C-89.11 157.354 -89.11 157.354 -89.668 159.145 C-91.684 163.466 -94.939 166.372 -98.312 169.688 C-98.977 170.364 -99.642 171.04 -100.326 171.736 C-103.675 175.065 -106.358 177.667 -111 179 C-113.008 179.983 -115.008 180.984 -117 182 C-117.547 182.268 -117.547 182.268 -120.312 183.625 C-123 185 -123 185 -124 186 C-128.14 186.253 -132.291 186.185 -136.438 186.188 C-137.609 186.2 -138.78 186.212 -139.986 186.225 C-141.103 186.227 -142.22 186.228 -143.371 186.23 C-143.886 186.233 -143.886 186.233 -146.494 186.243 C-149 186 -149 186 -151 184 C-152.657 183.31 -154.326 182.647 -156 182 C-158.008 181.017 -160.008 180.016 -162 179 C-162.464 178.814 -162.464 178.814 -164.812 177.875 C-171.143 174.151 -176.582 169.016 -179 162 C-181.778 156.222 -181.778 156.222 -183 155 C-183.103 153.66 -183.138 152.315 -183.145 150.971 C-183.152 150.117 -183.158 149.262 -183.165 148.382 C-183.166 147.453 -183.167 146.524 -183.168 145.566 C-183.171 144.618 -183.175 143.67 -183.178 142.693 C-183.183 140.683 -183.185 138.673 -183.185 136.663 C-183.187 133.579 -183.206 130.496 -183.225 127.412 C-183.228 125.464 -183.23 123.515 -183.23 121.566 C-183.238 120.639 -183.245 119.712 -183.252 118.757 C-183.249 117.899 -183.246 117.042 -183.243 116.158 C-183.244 115.402 -183.246 114.646 -183.247 113.866 C-183 112 -183 112 -181 110 C-180.835 108.845 -180.67 107.69 -180.5 106.5 C-180 103 -180 103 -178 101 C-177.31 99.343 -176.647 97.674 -176 96 C-175.017 93.992 -174.016 91.992 -173 90 C-172.625 89.107 -172.25 88.213 -171.863 87.293 C-169.39 82.922 -166.189 79.752 -162.625 76.25 C-161.965 75.578 -161.305 74.907 -160.625 74.215 C-157.288 70.898 -154.623 68.35 -150 67 C-149.67 66.67 -149.34 66.34 -149 66 C-147.927 65.918 -146.855 65.835 -145.75 65.75 C-141.248 64.85 -140.059 63.3 -137 60 C-134.25 58.75 -134.25 58.75 -132 58 C-131.67 57.67 -131.34 57.34 -131 57 C-129.866 56.856 -128.731 56.711 -127.562 56.562 C-124 56 -124 56 -122 54 C-118.578 53.676 -115.199 53.536 -111.766 53.434 C-106.2 53.2 -106.2 53.2 -104 51 C-100.656 50.613 -97.331 50.493 -93.969 50.344 C-91 50 -91 50 -89 48 C-86.785 47.713 -86.785 47.713 -84.062 47.656 C-83.085 47.627 -82.108 47.597 -81.102 47.566 C-79.034 47.522 -76.966 47.478 -74.898 47.434 C-73.921 47.404 -72.944 47.374 -71.938 47.344 C-71.488 47.334 -71.488 47.334 -69.215 47.287 C-67 47 -67 47 -65 45 C-62.436 44.619 -59.899 44.494 -57.312 44.344 C-55 44 -55 44 -53 42 C-51.342 41.312 -49.675 40.644 -48 40 C-47.67 39.67 -47.34 39.34 -47 39 C-45.866 38.856 -44.731 38.711 -43.562 38.562 C-40 38 -40 38 -38 36 C-36.343 35.31 -34.674 34.647 -33 34 C-29.748 32.54 -27.393 31.417 -24.938 28.812 C-23 27 -23 27 -20.25 26.75 C-19.508 26.832 -18.765 26.915 -18 27 C-18.111 26.288 -18.222 25.577 -18.336 24.844 C-17.861 20.822 -15.505 19.071 -12.625 16.5 C-9.06 13.27 -6.572 10.638 -5 6 C-3.498 3.714 -1.91 2.003 0 0 Z " fill="#22D3EE" transform="translate(3210,1398)"/>
<path d="M0 0 C2.25 1.188 2.25 1.188 3.5 3.688 C3.747 4.513 3.995 5.338 4.25 6.188 C4.415 6.352 4.415 6.352 5.25 7.188 C5.363 9.685 5.414 12.154 5.418 14.652 C5.42 15.027 5.42 15.027 5.428 16.921 C5.433 18.507 5.435 20.093 5.435 21.679 C5.437 24.111 5.456 26.543 5.475 28.975 C5.478 30.513 5.48 32.051 5.48 33.59 C5.488 34.32 5.495 35.05 5.502 35.803 C5.479 40.959 5.479 40.959 3.25 43.188 C2.56 44.844 1.897 46.513 1.25 48.188 C-2.49 56.318 -2.49 56.318 -7.188 58.125 C-9.75 59.188 -9.75 59.188 -11.625 61.25 C-14.498 63.869 -16.961 63.766 -20.75 64.188 C-21.41 64.848 -22.07 65.507 -22.75 66.188 C-24.723 66.441 -24.723 66.441 -27.168 66.446 C-27.625 66.449 -27.625 66.449 -29.939 66.465 C-30.928 66.461 -31.918 66.457 -32.938 66.453 C-33.951 66.455 -34.964 66.457 -36.009 66.459 C-38.154 66.46 -40.299 66.457 -42.444 66.448 C-45.737 66.438 -49.028 66.448 -52.32 66.461 C-54.401 66.46 -56.482 66.457 -58.562 66.453 C-59.552 66.457 -60.542 66.461 -61.561 66.465 C-62.476 66.459 -63.39 66.453 -64.332 66.446 C-65.139 66.445 -65.945 66.443 -66.777 66.441 C-68.75 66.188 -68.75 66.188 -70.75 64.188 C-73.062 63.844 -73.062 63.844 -75.75 63.688 C-80.528 63.41 -80.528 63.41 -82.75 61.188 C-84.407 60.497 -86.076 59.834 -87.75 59.188 C-89.758 58.205 -91.758 57.204 -93.75 56.188 C-94.612 55.843 -95.475 55.499 -96.363 55.145 C-101.32 52.28 -105 48.371 -109 44.312 C-109.815 43.509 -110.629 42.706 -111.469 41.879 C-112.247 41.096 -113.026 40.314 -113.828 39.508 C-114.534 38.799 -115.239 38.09 -115.966 37.36 C-117.859 35.055 -118.754 32.98 -119.75 30.188 C-120.08 29.858 -120.41 29.527 -120.75 29.188 C-120.848 27.523 -120.88 25.855 -120.875 24.188 C-120.878 23.28 -120.88 22.372 -120.883 21.438 C-120.75 19.188 -120.75 19.188 -119.75 18.188 C-116.312 18 -116.312 18 -112.75 18.188 C-112.09 18.848 -111.43 19.507 -110.75 20.188 C-110.173 20.27 -110.173 20.27 -107.25 20.688 C-103.75 21.188 -103.75 21.188 -101.75 23.188 C-100.595 23.352 -99.44 23.517 -98.25 23.688 C-94.75 24.188 -94.75 24.188 -92.75 26.188 C-90.591 26.437 -88.421 26.591 -86.25 26.688 C-79.972 26.965 -79.972 26.965 -77.75 29.188 C-74.953 29.415 -74.953 29.415 -71.43 29.383 C-70.173 29.376 -68.916 29.37 -67.621 29.363 C-66.302 29.347 -64.984 29.33 -63.625 29.312 C-62.285 29.302 -60.945 29.293 -59.605 29.285 C-56.32 29.262 -53.035 29.229 -49.75 29.188 C-49.42 28.527 -49.09 27.868 -48.75 27.188 C-46.75 28.188 -44.75 29.188 -42.75 30.188 C-42.585 29.693 -42.585 29.693 -41.75 27.188 C-40.636 27.064 -39.523 26.94 -38.375 26.812 C-34.75 26.188 -34.75 26.188 -32.75 24.188 C-32.234 24.167 -32.234 24.167 -29.625 24.062 C-24.721 22.955 -22.977 20.796 -19.742 17.098 C-17.524 14.97 -15.61 14.233 -12.75 13.188 C-10.75 11.188 -10.75 11.188 -10 8.938 C-7.985 4.505 -5.112 0.349 0 0 Z " fill="#22D3EE" transform="translate(2973.75,1469.8125)"/>
<path d="M0 0 C0.587 -0.007 0.587 -0.007 3.559 -0.043 C6.562 0.188 6.562 0.188 8.562 2.188 C9.367 2.497 10.171 2.806 11 3.125 C14.727 4.67 16.1 6.109 17.688 9.812 C17.976 10.596 18.265 11.38 18.562 12.188 C18.727 12.352 18.727 12.352 19.562 13.188 C19.689 15.846 19.748 18.466 19.75 21.125 C19.762 21.867 19.774 22.609 19.787 23.373 C19.792 25.313 19.684 27.252 19.562 29.188 C18.903 29.848 18.242 30.507 17.562 31.188 C17.262 31.954 16.962 32.721 16.652 33.512 C14.504 38.785 11.47 42.284 6.562 45.188 C0.404 46.829 -6.285 46.868 -12.438 45.188 C-18.494 41.453 -22.013 36.812 -24.438 30.188 C-24.767 29.858 -25.097 29.527 -25.438 29.188 C-26.457 24.62 -26.517 20.748 -25.438 16.188 C-21.275 9.751 -14.774 3.588 -7.438 1.188 C-5.565 -0.685 -2.501 0.014 0 0 Z " fill="#22D3EE" transform="translate(3151.4375,1496.8125)"/>
<path d="M0 0 C0.99 0 1.98 0 3 0 C3.33 0.66 3.66 1.32 4 2 C5.031 2.062 6.062 2.124 7.125 2.188 C12.354 3.284 14.777 5.86 18 10 C19.375 12.875 19.375 12.875 20 15 C20.165 15.165 20.165 15.165 21 16 C21.188 19.438 21.188 19.438 21 23 C20.34 23.66 19.68 24.32 19 25 C18.938 26.052 18.876 27.104 18.812 28.188 C17.709 33.367 15.106 35.804 11 39 C8.125 40.375 8.125 40.375 6 41 C5.67 41.33 5.34 41.66 5 42 C2.857 42.125 0.709 42.176 -1.438 42.188 C-2.025 42.195 -2.025 42.195 -4.996 42.23 C-8 42 -8 42 -10 40 C-10.742 39.753 -11.485 39.505 -12.25 39.25 C-16.198 37.455 -19.036 35.902 -21 32 C-21.624 26.606 -21.629 21.393 -21 16 C-20.34 15.34 -19.68 14.68 -19 14 C-18.691 13.196 -18.381 12.391 -18.062 11.562 C-16.517 7.836 -15.079 6.462 -11.375 4.875 C-10.591 4.586 -9.807 4.297 -9 4 C-8.67 3.67 -8.34 3.34 -8 3 C-6.845 2.856 -5.69 2.711 -4.5 2.562 C-3.345 2.377 -2.19 2.191 -1 2 C-0.67 1.34 -0.34 0.68 0 0 Z " fill="#22D3EE" transform="translate(3198,1521)"/>
</svg>
